HIERARCHY
ROOT root
{
	OFFSET	0	13.1	24.9
	CHANNELS 6  Xposition Yposition Zposition Xrotation Yrotation Zrotation
	JOINT spine_1
	{
		OFFSET	0	9.99999	0
		CHANNELS 3  Xrotation Yrotation Zrotation
		JOINT spine_2
		{
			OFFSET	0	112	-10
			CHANNELS 3  Xrotation Yrotation Zrotation
			JOINT spine_3
			{
				OFFSET	0	206.5	19.3
				CHANNELS 3  Xrotation Yrotation Zrotation
				JOINT spine_4
				{
					OFFSET	0	110.4	14.6
					CHANNELS 3  Xrotation Yrotation Zrotation
					JOINT neck_1
					{
						OFFSET	0	71.8	-50.3
						CHANNELS 3  Xrotation Yrotation Zrotation
						JOINT neck_2
						{
							OFFSET	0	86.2	-25.8
							CHANNELS 3  Xrotation Yrotation Zrotation
							JOINT head_ee
							{
								OFFSET	0	179.8	-8.7
								CHANNELS 3  Xrotation Yrotation Zrotation
								End Site
								{
									OFFSET	1	0	0
								}
							}
						}
					}
					JOINT left_clavicle
					{
						OFFSET	-43.2	22.4	-70.8
						CHANNELS 3  Xrotation Yrotation Zrotation
						JOINT left_shoulder
						{
							OFFSET	-93.9	-5.79999	48.7
							CHANNELS 3  Xrotation Yrotation Zrotation
							JOINT left_elbow
							{
								OFFSET	-291.4	-30.8	15.2
								CHANNELS 3  Xrotation Yrotation Zrotation
								JOINT left_lowarm_twist
								{
									OFFSET	-110.7	-3.89999	13.6
									CHANNELS 3  Xrotation Yrotation Zrotation
									JOINT left_hand
									{
										OFFSET	-110.7	-3.89999	13.6
										CHANNELS 3  Xrotation Yrotation Zrotation
										JOINT left_ee
										{
											OFFSET	-80.8	-5.10001	12.1
											CHANNELS 3  Xrotation Yrotation Zrotation
											End Site
											{
												OFFSET	1	0	0
											}
										}
									}
								}
							}
						}
					}
					JOINT right_clavicle
					{
						OFFSET	43.2	22.4	-70.8
						CHANNELS 3  Xrotation Yrotation Zrotation
						JOINT right_shoulder
						{
							OFFSET	93.9	-5.79999	48.7
							CHANNELS 3  Xrotation Yrotation Zrotation
							JOINT right_elbow
							{
								OFFSET	291.4	-30.8	15.2
								CHANNELS 3  Xrotation Yrotation Zrotation
								JOINT right_lowarm_twist
								{
									OFFSET	110.7	-3.89999	13.6
									CHANNELS 3  Xrotation Yrotation Zrotation
									JOINT right_hand
									{
										OFFSET	110.7	-3.89999	13.6
										CHANNELS 3  Xrotation Yrotation Zrotation
										JOINT right_ee
										{
											OFFSET	80.8	-5.10001	12.1
											CHANNELS 3  Xrotation Yrotation Zrotation
											End Site
											{
												OFFSET	1	0	0
											}
										}
									}
								}
							}
						}
					}
				}
			}
		}
	}
	JOINT left_hip
	{
		OFFSET	-82.8	-127.5	0.300001
		CHANNELS 3  Xrotation Yrotation Zrotation
		JOINT left_knee
		{
			OFFSET	-28.2	-396.7	2.2
			CHANNELS 3  Xrotation Yrotation Zrotation
			JOINT left_ankle
			{
				OFFSET	-11.7	-411.3	35.4
				CHANNELS 3  Xrotation Yrotation Zrotation
				JOINT left_toes
				{
					OFFSET	0	-60	-88.6
					CHANNELS 3  Xrotation Yrotation Zrotation
					JOINT left_foot_ee
					{
						OFFSET	-22.5	-16.5	-42.2
						CHANNELS 3  Xrotation Yrotation Zrotation
						End Site
						{
							OFFSET	1	0	0
						}
					}
				}
			}
		}
	}
	JOINT right_hip
	{
		OFFSET	82.8	-127.5	0.300001
		CHANNELS 3  Xrotation Yrotation Zrotation
		JOINT right_knee
		{
			OFFSET	28.2	-396.7	2.2
			CHANNELS 3  Xrotation Yrotation Zrotation
			JOINT right_ankle
			{
				OFFSET	11.7	-411.3	35.4
				CHANNELS 3  Xrotation Yrotation Zrotation
				JOINT right_toes
				{
					OFFSET	0	-60	-88.6
					CHANNELS 3  Xrotation Yrotation Zrotation
					JOINT right_foot_ee
					{
						OFFSET	22.5	-16.5	-42.2
						CHANNELS 3  Xrotation Yrotation Zrotation
						End Site
						{
							OFFSET	1	0	0
						}
					}
				}
			}
		}
	}
}
MOTION
Frames: 16
Frame Time: 0.02
3257.43 720.828 -789.754 -12.4132 56.1137 12.6335 2.8518 -0.135849 -0.0361628 2.85179 -0.133273 -0.044734 2.8519 -0.124314 -0.0656416 2.85192 -0.133121 -0.0451847 -8.74733 -12.5585 0.75826 -8.85584 -24.0598 -2.19221 -0.0 0.0 -0.0 3.28905 14.8523 7.03913 -7.72085 -47.287 58.5708 0.426754 -11.9369 0.0446163 -6.45307 -0.271563 0.778514 -0.0239067 13.7972 5.51526 -0.0 0.0 -0.0 7.28897 4.13596 -14.1497 31.5881 -61.7116 -46.5711 0.209368 5.92138 -0.0108285 85.1756 4.44756 8.8742 -3.83753 -28.0261 9.95479 0.0 0.0 0.0 17.8988 13.1302 -3.55502 -28.3627 0.103286 4.30716 34.8367 8.42734 -4.38788 -25.6189 0.0 0.0 -0.0 0.0 -0.0 31.8003 17.206 -2.13609 -42.112 0.606569 -6.29138 4.45031 -29.0809 0.68891 39.86 -0.0 -0.0 0.0 0.0 0.0 
3249.21 720.987 -787.219 -12.1223 55.1664 13.0999 2.66999 -0.0457803 -0.0867909 2.66999 -0.0401647 -0.0895282 2.67005 -0.0248994 -0.0949132 2.67004 -0.0395767 -0.0897896 -8.94875 -12.2165 0.673893 -9.06362 -23.377 -2.23407 -0.0 0.0 -0.0 3.79912 12.9928 7.82635 -6.45716 -47.6403 57.6151 0.406132 -11.3755 0.0404497 -6.23586 -0.261002 0.752824 -0.115344 13.7669 4.92913 -0.0 0.0 -0.0 7.17495 4.02427 -13.9174 30.9126 -61.6384 -45.8939 0.207488 5.86859 -0.0106355 85.1496 4.44444 8.873 -3.69544 -27.7904 9.31389 0.0 0.0 0.0 17.2288 13.734 -3.87392 -27.5706 0.129425 4.18839 34.5939 8.04081 -4.36269 -25.5005 0.0 0.0 -0.0 0.0 -0.0 35.1993 15.8972 -2.64058 -39.0316 0.40631 -5.86225 2.25085 -29.0989 0.350334 39.2846 -0.0 -0.0 0.0 0.0 0.0 
3238.34 722.789 -787.063 -12.5914 54.6478 13.9712 2.66176 0.00782138 -0.160745 2.66178 0.0180342 -0.159922 2.66172 0.0441033 -0.154775 2.66169 0.019106 -0.159797 -9.09352 -11.8952 0.601663 -9.21046 -22.7362 -2.25509 -0.0 0.0 -0.0 4.17364 12.0612 8.43763 -6.22406 -47.5781 56.563 0.39491 -11.069 0.0382656 -6.13589 -0.256174 0.740987 -0.207947 13.8357 4.37619 -0.0 0.0 -0.0 7.07695 3.61474 -13.7228 30.6914 -61.6912 -45.1176 0.213339 6.03287 -0.011242 85.1626 4.446 8.8736 -3.60112 -27.6902 8.85268 0.0 0.0 0.0 16.6454 13.5583 -3.90421 -27.473 0.13253 4.17374 34.6796 7.69744 -4.37009 -25.4345 0.0 0.0 -0.0 0.0 -0.0 37.5241 15.4795 -3.30607 -37.563 0.319049 -5.65408 0.701432 -28.9416 0.109443 38.7837 -0.0 -0.0 0.0 0.0 0.0 
3234.25 721.872 -786.954 -13.2113 56.1724 14.6587 2.50344 0.000883139 -0.182003 2.50346 0.0124627 -0.181578 2.50342 0.0426603 -0.176935 2.50337 0.0141813 -0.181452 -9.0325 -11.616 0.350125 -9.13968 -22.0341 -2.41942 -0.0 0.0 -0.0 4.48655 10.646 8.9528 -4.76811 -48.115 55.3621 0.442318 -12.359 0.0478914 -6.2583 -0.262088 0.75548 -0.283899 13.6296 3.81631 -0.0 0.0 -0.0 7.0462 3.81281 -13.6572 31.1499 -61.8222 -43.9442 0.222896 6.30102 -0.0122687 85.1915 4.44946 8.87492 -3.44452 -27.013 8.3876 0.0 0.0 0.0 16.2306 13.4665 -3.88652 -26.8784 0.150916 4.08435 34.9421 7.38515 -4.39497 -25.3491 0.0 0.0 -0.0 0.0 -0.0 39.5611 15.3321 -3.94393 -35.5099 0.206094 -5.35954 -0.889807 -28.4298 -0.138844 38.089 -0.0 -0.0 0.0 0.0 0.0 
3232.05 720.938 -787.04 -14.1069 55.6694 15.7806 2.67884 0.0301484 -0.10334 2.67885 0.0366631 -0.101212 2.67878 0.0527897 -0.0938151 2.67877 0.0373108 -0.100975 -8.92042 -11.2945 -0.0448104 -9.01433 -21.1493 -2.70528 -0.0 0.0 -0.0 4.63877 9.7709 9.20709 -5.83422 -47.5015 53.0092 0.434447 -12.1457 0.0462209 -6.00422 -0.249847 0.725384 -0.411684 14.0871 3.20454 -0.0 0.0 -0.0 8.48876 5.82165 -16.6263 31.7216 -61.8817 -39.4467 0.275464 7.77059 -0.0187083 85.1354 4.44274 8.87236 -3.20582 -26.2358 7.50507 0.0 0.0 0.0 15.9549 13.3771 -3.77107 -25.092 0.200556 3.81469 35.4686 7.71176 -4.44694 -24.7874 0.0 0.0 -0.0 0.0 -0.0 40.5964 14.2545 -4.79434 -29.8325 -0.0504468 -4.52652 -4.2869 -25.1709 -0.660738 35.0246 -0.0 -0.0 0.0 0.0 0.0 
3231.54 722.86 -796.424 -16.0942 56.1728 18.0826 2.66767 0.0232741 -0.0403719 2.66767 0.0257959 -0.0388091 2.66765 0.0318267 -0.0340388 2.66765 0.0260515 -0.038638 -8.71338 -10.9806 0.211156 -8.79224 -20.7183 -2.34004 -0.0 0.0 -0.0 4.86087 9.10736 9.59153 -5.61798 -47.4909 50.3587 0.456057 -12.7306 0.0508756 -6.03529 -0.251337 0.729067 -0.49547 14.2684 2.75697 -0.0 0.0 -0.0 9.17725 5.0821 -18.0758 32.0359 -62.5699 -36.9109 0.304808 8.58659 -0.0228829 85.2221 4.45313 8.87632 -3.00693 -25.4539 6.82654 0.0 0.0 0.0 15.598 13.1093 -4.53096 -22.9094 0.249751 3.4834 36.0014 7.06473 -4.49639 -24.7091 0.0 0.0 -0.0 0.0 -0.0 41.6822 13.9651 -5.71804 -24.2359 -0.221357 -3.68497 -7.51599 -24.1368 -1.15854 33.3008 -0.0 -0.0 0.0 0.0 0.0 
3216.0 720.732 -802.362 -16.5521 56.9607 18.8531 2.59468 -0.0695129 -0.0267973 2.59467 -0.0676668 -0.0311662 2.59471 -0.0615671 -0.0419479 2.59472 -0.0674193 -0.031698 -8.92303 -10.7003 0.745682 -9.00744 -20.5773 -1.78631 -0.0 0.0 -0.0 5.10905 8.80056 10.0303 -5.51341 -47.624 50.3685 0.499822 -13.9068 0.0609583 -6.37548 -0.267779 0.769342 -0.555368 14.3517 2.41851 -0.0 0.0 -0.0 9.01484 5.25281 -17.7341 30.3884 -63.0767 -37.2364 0.283974 8.00758 -0.0198764 85.1637 4.44614 8.87365 -3.0027 -25.3053 6.88528 0.0 0.0 0.0 15.1891 13.1827 -4.516 -23.0468 0.247028 3.50429 36.3831 7.71405 -4.53441 -24.6807 0.0 0.0 -0.0 0.0 -0.0 43.4275 13.6129 -6.3115 -23.3815 -0.240181 -3.5552 -7.51518 -24.234 -1.15896 32.6587 -0.0 -0.0 0.0 0.0 0.0 
3205.07 716.684 -810.883 -17.9171 57.5271 19.9425 2.62569 -0.140224 -0.0041988 2.62568 -0.139673 -0.0131131 2.62572 -0.135589 -0.0360024 2.62574 -0.139573 -0.0141368 -9.02899 -10.4875 1.10819 -9.11397 -20.4342 -1.39823 -0.0 0.0 -0.0 5.125 8.34368 10.0565 -5.12963 -47.8329 49.5394 0.534868 -14.8402 0.0696583 -6.59002 -0.278272 0.794691 -0.598709 14.34 2.14374 -0.0 0.0 -0.0 8.93598 5.38069 -17.5683 29.2102 -63.3968 -36.9887 0.271185 7.65132 -0.0181341 85.0799 4.43609 8.86981 -2.99679 -25.102 6.96479 0.0 0.0 0.0 14.7499 13.2373 -4.57206 -22.9995 0.247971 3.4971 36.5952 8.26822 -4.55644 -24.6492 0.0 0.0 -0.0 0.0 -0.0 44.6142 13.3487 -6.8638 -22.6305 -0.255127 -3.44093 -7.86615 -24.1997 -1.21352 32.1901 -0.0 -0.0 0.0 0.0 0.0 
3187.65 708.412 -811.342 -18.9197 56.8789 20.5158 2.85298 -0.00218101 -0.0582154 2.85298 0.00152781 -0.0582362 2.85298 0.0108987 -0.0572277 2.85297 0.00172383 -0.0582307 -9.52177 -9.38815 -0.524678 -9.60279 -17.288 -2.80371 -0.0 0.0 -0.0 5.40848 6.49611 10.5606 -4.05721 -48.0609 48.8728 0.620138 -17.077 0.093107 -6.5727 -0.277421 0.792645 -0.767004 16.5539 2.03997 -0.0 0.0 -0.0 8.43438 6.73956 -16.5044 27.3804 -64.346 -36.6561 0.258989 7.31102 -0.0165461 85.1552 4.44512 8.87326 -2.98902 -24.7043 7.14144 0.0 0.0 0.0 13.432 13.3801 -3.93928 -22.2065 0.262904 3.37633 37.7069 7.45916 -4.65713 -24.4737 0.0 0.0 -0.0 0.0 -0.0 45.6559 13.2754 -7.23212 -20.5338 -0.28891 -3.121 -9.44232 -22.9732 -1.45157 29.8552 -0.0 -0.0 0.0 0.0 0.0 
3169.89 700.198 -814.595 -19.0988 57.1774 20.7642 2.84248 -0.0761516 -0.320711 2.84254 -0.0555897 -0.324907 2.84284 -0.00241163 -0.329619 2.84269 -0.0544382 -0.325101 -7.86933 -8.67215 0.660835 -7.89015 -16.6486 -1.22774 -0.0 0.0 -0.0 5.64234 7.09995 10.9898 -1.04328 -47.8636 50.0157 0.699754 -19.1183 0.117843 -7.0071 -0.298942 0.84386 -0.731601 14.922 1.56438 -0.0 0.0 -0.0 8.26005 6.4406 -16.1403 28.1198 -64.3122 -34.5252 0.210049 5.94051 -0.0108989 85.1105 4.43976 8.87121 -3.05815 -24.5265 7.6355 0.0 0.0 0.0 12.0713 13.4342 -3.63044 -22.6909 0.253982 3.45012 39.8362 7.07329 -4.84679 -23.7858 0.0 0.0 -0.0 0.0 -0.0 46.9523 13.5386 -7.17777 -20.7428 -0.286069 -3.15293 -8.40235 -21.9044 -1.28396 30.9826 -0.0 -0.0 0.0 0.0 0.0 
3166.81 696.563 -822.95 -20.6313 56.7682 22.6786 3.13177 -0.152827 -0.304843 3.13181 -0.133119 -0.31395 3.13253 -0.0823687 -0.330909 3.13241 -0.133595 -0.313747 -7.06678 -9.27469 1.73609 -7.05076 -18.4878 -0.163084 -0.0 0.0 -0.0 6.25113 5.69517 12.1208 -2.34871 -47.4688 46.3231 0.71449 -19.4908 0.122714 -7.12843 -0.305022 0.858134 -0.736595 16.1074 2.03698 -0.0 0.0 -0.0 8.13655 6.45886 -15.8805 26.1288 -64.4227 -36.2722 0.188817 5.34372 -0.00881149 85.0759 4.43562 8.86963 -3.267 -25.4165 8.3205 0.0 0.0 0.0 11.1698 13.5937 -3.70386 -18.5339 0.310205 2.81489 41.3095 9.99292 -4.98955 -24.3267 0.0 0.0 -0.0 0.0 -0.0 47.4254 13.2478 -8.36651 -14.3784 -0.320237 -2.17753 -6.76192 -19.2376 -1.02064 28.7614 -0.0 -0.0 0.0 0.0 0.0 
3154.09 693.758 -830.71 -21.1976 57.1703 23.4114 3.04293 -0.113541 -0.324275 3.04298 -0.0926766 -0.330842 3.04351 -0.0392502 -0.341328 3.04335 -0.0926638 -0.330846 -6.32848 -8.81456 2.18931 -6.27831 -17.9213 0.503309 -0.0 0.0 -0.0 5.41438 3.29635 10.5384 0.102745 -49.3318 48.3878 0.821298 -22.1387 0.160678 -7.83815 -0.341194 0.941381 -0.888001 15.9467 1.03804 -0.0 0.0 -0.0 8.05719 7.01344 -15.7055 23.8962 -65.3718 -37.8507 0.200552 5.67371 -0.00993791 85.0499 4.4325 8.86843 -3.07848 -24.4654 7.7862 0.0 0.0 0.0 10.7861 13.6014 -3.85643 -18.6507 0.309255 2.83279 41.2904 10.6661 -4.99356 -24.5082 0.0 0.0 -0.0 0.0 -0.0 47.9889 14.7727 -9.11593 -11.2349 -0.297117 -1.69582 -6.88856 -17.6286 -1.03493 28.2068 -0.0 -0.0 0.0 0.0 0.0 
3144.66 691.645 -837.585 -23.2213 57.0389 25.0646 3.13984 -0.0683217 -0.140502 3.13985 -0.0592427 -0.144565 3.13999 -0.0359179 -0.152048 3.13997 -0.0594803 -0.144467 -6.3863 -8.53285 2.33514 -6.3369 -17.5082 0.696402 -0.0 0.0 -0.0 5.36761 3.04681 10.4455 1.15769 -49.589 49.1159 0.870537 -23.3273 0.179707 -8.27835 -0.364148 0.992789 -0.99572 16.5241 0.627879 -0.0 0.0 -0.0 8.06244 7.02806 -15.7163 22.2438 -66.0559 -39.0032 0.197119 5.57723 -0.00960144 84.9315 4.41833 8.86297 -3.1418 -24.4705 8.14625 0.0 0.0 0.0 10.4236 13.6126 -3.8755 -16.8539 0.319828 2.55731 41.5079 11.1599 -5.01665 -24.8563 0.0 0.0 -0.0 0.0 -0.0 49.0052 14.5106 -9.96805 -9.4892 -0.272877 -1.42907 -6.59766 -15.5921 -0.985827 28.1492 -0.0 -0.0 0.0 0.0 0.0 
3131.19 688.762 -846.068 -25.3673 56.562 26.981 3.28648 -0.0129813 -0.0512977 3.28648 -0.00969075 -0.0520198 3.28649 -0.00157575 -0.0528912 3.28648 -0.00990916 -0.0519786 -5.26963 -7.38666 1.97964 -5.20493 -15.0787 0.707881 -0.0 0.0 -0.0 5.21491 5.20936 10.1913 2.00474 -49.6122 49.7021 0.971734 -25.7042 0.221707 -9.37669 -0.423142 1.12029 -1.08067 16.6536 0.165247 -0.0 0.0 -0.0 7.87359 6.12044 -15.334 20.212 -66.6817 -40.1876 0.197238 5.58056 -0.00961297 84.7044 4.39117 8.85241 -3.0941 -24.4645 7.87622 0.0 0.0 0.0 9.99644 13.9912 -3.91061 -15.2191 0.321938 2.30651 41.6935 11.298 -5.03375 -24.0804 0.0 0.0 -0.0 0.0 -0.0 48.7632 15.09 -10.4391 -6.84269 -0.220655 -1.02635 -8.36809 -13.3317 -1.2488 26.4016 -0.0 -0.0 0.0 0.0 0.0 
3116.11 688.566 -853.268 -28.2195 56.9404 28.6842 3.30358 0.0188455 0.0213991 3.30358 0.0174457 0.0225549 3.30359 0.013777 0.0249653 3.30359 0.0175469 0.0224762 -5.20173 -5.99001 -0.632123 -5.18098 -10.5535 -1.69644 -0.0 0.0 -0.0 5.24357 6.80252 10.2608 2.80933 -49.2402 50.8223 1.11122 -28.8303 0.285634 -9.79791 -0.446416 1.16888 -1.03228 16.5843 0.430611 -0.0 0.0 -0.0 8.5072 5.06486 -16.6675 19.982 -66.4773 -37.419 0.247944 7.00239 -0.0151701 85.1784 4.4479 8.87433 -3.00883 -25.8137 6.63698 0.0 0.0 0.0 9.72667 14.5079 -3.15016 -14.3124 0.320023 2.1674 41.5158 11.9831 -5.02586 -21.7314 0.0 0.0 -0.0 0.0 -0.0 49.1905 16.5175 -9.30681 -4.15063 -0.148502 -0.619546 -16.3642 -14.859 -2.46962 25.8221 -0.0 -0.0 0.0 0.0 0.0 
3089.83 687.268 -863.537 -30.9599 56.9338 30.709 3.7491 0.0689275 0.0646688 3.7491 0.0646728 0.0689238 3.74918 0.0539328 0.0776164 3.74918 0.065514 0.0681247 -2.7755 -3.96447 -2.3995 -2.75318 -5.31664 -3.06339 -0.0 0.0 -0.0 5.48789 10.6088 10.6938 1.19848 -48.2419 51.9175 1.34903 -33.7519 0.409267 -11.8448 -0.564579 1.40257 -1.23879 17.6005 -0.377204 -0.0 0.0 -0.0 8.92107 3.70288 -17.5254 19.7743 -66.7515 -34.7344 0.336105 9.45304 -0.0277896 85.3019 4.46271 8.87996 -2.60345 -25.008 4.7884 0.0 0.0 0.0 9.06537 15.3671 -2.44152 -14.7635 0.321251 2.2366 41.5339 12.1785 -5.02958 -18.817 0.0 0.0 -0.0 0.0 -0.0 48.7467 17.4971 -8.53737 -1.52315 -0.0597122 -0.226116 -22.2443 -16.4545 -3.37684 25.1296 -0.0 -0.0 0.0 0.0 0.0 
